<?xml version="1.0" encoding="UTF-8" standalone="no"?>
<!-- Created with Inkscape (http://www.inkscape.org/) -->

<svg
   version="1.1"
   id="svg1"
   width="1276.8121"
   height="1631.4272"
   viewBox="0 0 1276.8121 1631.4272"
   sodipodi:docname="phosphorite-icon.svg"
   inkscape:version="1.4.2 (ebf0e94, 2025-05-08)"
   xmlns:inkscape="http://www.inkscape.org/namespaces/inkscape"
   xmlns:sodipodi="http://sodipodi.sourceforge.net/DTD/sodipodi-0.dtd"
   xmlns="http://www.w3.org/2000/svg"
   xmlns:svg="http://www.w3.org/2000/svg">
  <sodipodi:namedview
     id="namedview1"
     pagecolor="#ffffff"
     bordercolor="#000000"
     borderopacity="0.25"
     inkscape:showpageshadow="2"
     inkscape:pageopacity="0.0"
     inkscape:pagecheckerboard="0"
     inkscape:deskcolor="#d1d1d1"
     inkscape:zoom="0.56982422"
     inkscape:cx="638.79349"
     inkscape:cy="815.16367"
     inkscape:window-width="3440"
     inkscape:window-height="1369"
     inkscape:window-x="-8"
     inkscape:window-y="-8"
     inkscape:window-maximized="1"
     inkscape:current-layer="svg1" />
  <defs
     id="defs1" />
  <g
     id="g1"
     transform="translate(-1238.412,-208.75491)">
    <path
       style="fill:#d4f9fa"
       d="m 1827.3334,1838.0962 c -34.8394,-7.1533 -65.289,-21.1502 -80.9077,-37.1912 l -4.9608,-5.0949 -0.3991,-69.5717 -0.3991,-69.5717 -3.5225,-6.6667 c -4.097,-7.7537 -6.3531,-9.9772 -14.2879,-14.0808 l -5.8104,-3.0049 -6.1993,-0.5957 -6.1993,-0.5957 -5.4515,1.468 c -2.9983,0.8073 -7.9962,3.3113 -11.1064,5.5643 l -5.6549,4.0964 -3.5506,7.5742 -3.5505,7.5742 v 56.3312 56.3313 l -1.0269,0.1454 c -34.8178,4.9315 -89.0503,-54.9843 -97.4934,-107.7103 l -1.8068,-11.2832 -0.1718,-23.5739 c -0.095,-12.9656 -0.5196,-33.4738 -0.9445,-45.5738 l -0.7726,-22 -2.0103,-7.3334 c -1.1056,-4.0333 -3.8283,-10.7601 -6.0503,-14.9483 l -4.0399,-7.6151 -9.8432,-9.6817 c -10.8789,-10.7006 -12.3555,-11.6618 -23.8703,-15.5392 l -7.97,-2.6837 -20.0758,-2.0947 c -74.5899,-7.7826 -131.4681,-54.8213 -142.6172,-117.9453 l -1.9737,-11.1746 2e-4,-14.8254 3e-4,-14.8253 1.9672,-10.2807 c 1.082,-5.6544 4.1999,-17.9544 6.9286,-27.3333 l 4.9613,-17.0527 -0.059,-14 c -0.033,-7.7 -0.2202,-15.2 -0.4173,-16.6666 -0.4399,-3.2741 -11.7224,-27.6301 -13.2574,-28.6195 -0.6091,-0.3926 -2.7632,-4.0139 -4.7867,-8.0472 -2.0236,-4.0333 -4.7293,-8.8333 -6.0127,-10.6667 -3.0401,-4.3428 -31.2615,-60.0287 -37.8407,-74.6666 -2.8017,-6.2334 -6.8317,-15.1103 -8.9555,-19.7266 -2.1239,-4.6162 -3.8616,-8.8891 -3.8616,-9.4953 0,-0.6062 -4.123,-11.5293 -9.1621,-24.2735 -5.0391,-12.7442 -10.4814,-27.6713 -12.0939,-33.1713 -1.6125,-5.5 -4.4342,-14.2 -6.2703,-19.3333 -1.8362,-5.1334 -3.8422,-11.7334 -4.4577,-14.6667 -0.6155,-2.9333 -2.9116,-12.2333 -5.1024,-20.66667 -3.4771,-13.38448 -6.65,-28.55408 -8.7847,-42 -1.6521,-10.40587 -4.7931,-35.62522 -5.4802,-44 -0.4211,-5.13333 -1.0176,-10.83333 -1.3255,-12.66666 -0.308,-1.83334 -0.939,-13.83334 -1.4022,-26.66667 l -0.8424,-23.33333 1.5139,-22 c 2.1002,-30.52208 2.7304,-38.61289 3.4273,-44 0.3321,-2.56667 0.9065,-7.36667 1.2766,-10.66667 0.3701,-3.3 0.9677,-8.1 1.328,-10.66667 0.3603,-2.56666 0.9955,-7.36666 1.4115,-10.66666 0.4159,-3.3 2.228,-14.8449 4.0268,-25.65532 1.7988,-10.81043 3.2706,-20.26043 3.2706,-21 v -1.34468 l 169,-0.007 169,-0.007 4.7425,-1.31745 4.7424,-1.31746 3.9242,-4.09398 3.9242,-4.09398 0.3898,-39.15426 0.3898,-39.15425 4.2769,-0.92599 c 2.3523,-0.50929 5.8695,-2.05138 7.816,-3.42687 1.9466,-1.37549 4.15,-2.50088 4.8966,-2.50088 0.7466,0 4.132,-3.15 7.5231,-7 l 6.1656,-7 4.8519,-9.75713 4.852,-9.75713 0.086,-13.57621 0.086,-13.5762 -3.1261,-8.23566 -3.126,-8.23566 -8.0992,-9.62182 -8.0992,-9.62182 -10.1081,-4.69173 -10.1081,-4.69173 -13.4915,-0.61777 -13.4916,-0.61778 -8.5084,2.83846 c -22.5308,7.51639 -39.4155,29.79225 -40.5485,53.49551 l -0.3505,7.33333 1.9601,7.90481 c 1.0781,4.34764 3.4604,10.86541 5.2941,14.48393 l 3.3339,6.57914 7.5678,7.66471 7.5679,7.66472 7.6667,3.55707 7.6667,3.55708 v 25.29427 25.29427 h -154.8112 -154.8113 l 0.9404,-3.66666 c 0.5173,-2.01667 1.1679,-4.86667 1.4459,-6.33334 0.2781,-1.46666 2.0589,-7.76666 3.9573,-14 1.8985,-6.23333 3.6528,-12.25045 3.8986,-13.37138 0.3751,-1.71112 5.8542,-17.0474 13.3242,-37.29528 4.7824,-12.96282 11.0491,-28.43725 15.3888,-38 2.6624,-5.86667 5.6771,-12.76667 6.6992,-15.33334 1.0222,-2.56666 5.4131,-10.96666 9.7577,-18.66666 4.3446,-7.7 9.5152,-17 11.4902,-20.66667 5.0854,-9.44099 9.0656,-16.29268 11.8679,-20.4298 1.33,-1.96361 5.935,-8.9702 10.2334,-15.5702 15.6364,-24.00923 40.8473,-54.48033 64.6092,-78.08987 l 18.2067,-18.08987 18.9798,-14.89086 c 16.8212,-13.19726 29.0607,-22.14303 35.9325,-26.26273 1.2232,-0.73334 6.0027,-3.88334 10.6212,-7 4.6185,-3.11667 8.6447,-5.66667 8.9471,-5.66667 0.3024,0 7.0236,-3.96378 14.9361,-8.8084 29.7455,-18.21252 88.1982,-45.16799 109.7196,-50.59725 1.1,-0.2775 8,-2.61857 15.3333,-5.20238 7.3334,-2.5838 18.4334,-5.94384 24.6667,-7.46673 6.2333,-1.5229 14.0333,-3.60814 17.3333,-4.63387 3.3,-1.02573 7.5,-2.14368 9.3334,-2.48434 1.8333,-0.34065 8.1333,-1.83891 14,-3.32946 9.0512,-2.29967 24.9304,-5.1664 41.3333,-7.4621 2.2,-0.30791 6.7,-0.96656 10,-1.46369 3.3,-0.49712 7.4879,-1.08694 9.3064,-1.31071 l 3.3064,-0.40686 1.0065,1.5829 1.0065,1.58289 0.021,112.18677 0.02,112.18676 -23.1351,-0.01 -23.1352,-0.0101 -5.0448,2.39393 -5.0448,2.39392 -2.7104,6.09602 -2.7103,6.09602 -0.1097,127.06923 -0.1097,127.06923 -8.6667,4.61247 -8.6667,4.61246 -6.4481,6.98497 -6.4482,6.98498 -3.9967,8.30318 c -4.6757,9.71365 -5.5862,13.93826 -5.5383,25.69682 l 0.035,8.66666 2.2877,8.02681 2.2877,8.0268 6.931,9.30653 6.931,9.30653 6.964,4.66751 c 3.8302,2.56713 10.4445,6.01713 14.6986,7.66667 l 7.7346,2.99915 h 12.1866 12.1867 l 12.4274,-5.77493 12.4274,-5.77494 4.8243,-5.9017 c 7.2953,-8.92452 13.0786,-18.56943 14.6631,-24.45388 l 1.4217,-5.2798 v -11.00451 c 0,-14.14385 -0.8113,-17.97509 -5.9879,-28.27791 l -4.2545,-8.46766 -6.568,-5.94696 c -3.6124,-3.27083 -9.3124,-7.51189 -12.6666,-9.4246 -3.3543,-1.9127 -7.1488,-4.36911 -8.4321,-5.45869 l -2.3333,-1.98105 V 595.79335 480 l 24.3333,-0.005 24.3333,-0.005 4.2686,-2.60272 4.2686,-2.60272 2.0648,-3.99275 2.0647,-3.99275 V 338.69103 210.58297 l 1.6667,-0.56895 c 2.5139,-0.85819 33.2257,-1.70534 35.9544,-0.99177 l 2.3789,0.6221 -0.031,172.84449 -0.031,172.84449 -9.6142,5.33334 c -8.6017,4.77163 -18.3241,12.57711 -18.3241,14.71118 0,0.44004 -1.4462,2.71004 -3.2137,5.04445 -3.6778,4.85719 -7.1713,14.78713 -8.5647,24.34437 l -0.9574,6.56666 1.028,8.75728 1.0279,8.75727 3.0577,7.51554 c 5.065,12.44959 17.0733,23.99135 32.147,30.89802 l 5.1914,2.37869 13.4752,0.66499 13.4753,0.665 8.6666,-2.93227 c 9.2688,-3.13598 14.584,-6.54192 23.7806,-15.23833 l 5.7806,-5.46619 3.7023,-7.33333 c 2.0363,-4.03333 4.4646,-10.56514 5.3961,-14.51513 l 1.6936,-7.1818 -0.6928,-11.10505 -0.6928,-11.10504 -5.0472,-10.75545 -5.0472,-10.75544 -5.7349,-5.28623 -5.7349,-5.28622 -8.7066,-4.29344 -8.7067,-4.29343 0.3383,-173.28353 0.3383,-173.28352 18,0.33067 18,0.33067 1.0686,1.04341 1.0686,1.04342 0.2648,132.76644 0.2647,132.76644 2.749,3.68256 c 1.512,2.02541 4.4056,4.91964 6.4303,6.43162 l 3.6812,2.74905 83.2364,0.36271 83.2364,0.36272 -0.018,17.63728 c -0.01,9.70051 -0.3695,18.94715 -0.7988,20.54809 l -0.7807,2.91081 -4.8678,2.30455 c -2.6773,1.26751 -7.9414,4.62207 -11.6981,7.45457 l -6.8302,5.15002 -5.1698,8.29862 c -2.8433,4.56425 -5.8785,9.92072 -6.7448,11.90328 l -1.5751,3.60466 -33.9542,0.39801 -33.9542,0.39801 -2.9459,2.66667 c -1.6203,1.46667 -4.0821,4.89276 -5.4707,7.61355 l -2.5248,4.94688 -0.02,62.38645 -0.021,62.38645 -0.9795,1.44876 c -0.5388,0.79681 -3.9796,3.17805 -7.6463,5.29164 -14.1062,8.13127 -25.3997,22.74608 -29.3464,37.97673 l -1.9869,7.66779 0.037,8.47421 0.038,8.47421 2.3163,6.66666 c 3.6269,10.43841 7.445,16.72198 15.1471,24.92743 l 7.1281,7.59409 10,4.36525 10,4.36524 12.5147,0.50888 12.5147,0.50888 11.3062,-4.46821 11.3063,-4.46822 5.5124,-5.34126 c 3.0318,-2.93768 7.824,-8.73234 10.6493,-12.87701 l 5.1369,-7.53575 2.3311,-8.68259 2.3311,-8.68258 -0.4686,-10.05856 -0.4685,-10.05856 -2.7584,-7.37254 -2.7585,-7.37255 -5.784,-7.69449 -5.7841,-7.6945 -5.7903,-4.13609 c -3.1846,-2.27486 -8.3403,-5.42871 -11.4569,-7.00858 l -5.6667,-2.87247 V 660.63957 608 h 21.1115 21.1116 l 3.8884,7.51664 3.8885,7.51663 9.5915,8.71998 9.5916,8.71998 8.4084,3.32056 8.4085,3.32056 12,0.10949 12,0.10949 6,-1.92352 c 8.2401,-2.64168 18.1276,-9.17933 25.5895,-16.91997 l 6.2561,-6.48984 4.297,-8.66667 4.2969,-8.66666 0.6133,-13.4777 0.6133,-13.47769 -2.7553,-7.66256 c -1.5154,-4.21441 -4.6672,-10.81727 -7.0041,-14.67301 l -4.2487,-7.01045 -7.3146,-5.8493 c -4.023,-3.21711 -9.796,-7.04929 -12.8289,-8.51596 l -5.5145,-2.66667 -0.6667,-32 -0.6666,-32 -2.301,-4.20461 -2.301,-4.2046 -4.5231,-2.7954 -4.523,-2.79539 h -82.176 -82.1759 V 334.55725 215.78118 l 9,0.57012 c 41.9345,2.65642 124.2818,24.16505 172.8757,45.15414 28.6338,12.36773 73.2074,35.15097 79.5626,40.66739 1.1577,1.00494 2.5133,1.82717 3.0124,1.82717 0.9631,0 17.6138,10.62116 34.2159,21.82568 9.7987,6.61294 30.8253,22.66674 42.6097,32.53234 8.5442,7.15303 32.8028,31.53971 41.3904,41.60893 4.0333,4.72921 10.0571,11.62133 13.3862,15.31581 3.3291,3.69448 8.689,10.31724 11.9108,14.71724 3.2219,4.4 6.2295,8.3 6.6837,8.66667 3.1401,2.5352 24.587,34.87869 33.4098,50.3845 10.2935,18.09036 19.9428,36.20519 19.9428,37.43897 0,0.83042 0.7,1.50986 1.5555,1.50986 0.8556,0 1.2208,0.3348 0.8116,0.744 -0.4092,0.4092 1.2066,4.7592 3.5907,9.66667 2.3841,4.90746 6.2376,13.42266 8.5634,18.92266 2.3258,5.5 5.1126,11.8 6.1928,14 1.8837,3.83635 7.9279,20.29728 17.3801,47.33334 2.4357,6.96666 4.7834,14.69567 5.2171,17.17557 0.4338,2.4799 2.2045,9.9799 3.935,16.66667 1.7304,6.68676 4.4169,18.15776 5.9699,25.49109 1.553,7.33333 3.7097,17.40334 4.7926,22.37779 1.0829,4.97445 2.2678,10.67445 2.633,12.66667 0.3653,1.99221 0.9561,5.07721 1.3129,6.85555 0.3569,1.77834 1.3033,8.07834 2.1032,14 0.7999,5.92166 1.9625,13.16666 2.5834,16.09999 0.621,2.93333 1.499,9.83333 1.9512,15.33333 0.4522,5.5 1.099,11.8 1.4374,14 2.6594,17.28915 3.97,44.04245 3.854,78.66667 l -0.1161,34.66667 -1.6342,14 c -0.8988,7.7 -1.916,16.4 -2.2603,19.33333 -0.3443,2.93333 -1.5386,11.03333 -2.6539,18 -1.1153,6.96667 -2.3462,15.06667 -2.7352,18 -0.943,7.10992 -13.3847,58.0621 -16.4418,67.3333 -1.33,4.0334 -3.4087,10.8123 -4.6195,15.0643 -2.6511,9.3106 -23.3137,64.5049 -29.0512,77.6024 -6.1747,14.0953 -16.7305,36.8233 -19.197,41.3333 -1.2031,2.2 -6.9953,13.3 -12.8715,24.6667 -5.8762,11.3667 -11.4061,21.5667 -12.2886,22.6667 -4.3184,5.3827 -16.2727,28.1352 -20.1868,38.4213 l -4.4059,11.5787 -0.044,11.8177 -0.044,11.8178 2.7001,11.5156 c 1.485,6.3335 3.3204,12.9714 4.0786,14.7508 2.5776,6.0492 6.6347,28.7204 7.4273,41.5034 l 0.7898,12.7387 -1.6311,9.928 c -6.7125,40.857 -25.2707,70.6161 -60.11,96.3902 -22.3504,16.5347 -52.8168,27.2024 -84.588,29.6181 -14.9763,1.1388 -28.1325,4.011 -35.9685,7.8524 l -6.6982,3.2837 -9.7544,9.7251 -9.7544,9.7251 -5.5492,11.1728 -5.5492,11.1728 -0.9789,49.4939 -0.9789,49.4939 -1.5295,10 c -2.1493,14.051 -6.9412,29.8554 -12.6458,41.7069 l -4.8725,10.1229 -11.0598,13.0851 c -21.2297,25.1172 -45.3163,40.6428 -67.2531,43.3496 l -3.2591,0.4021 -0.4626,-56 -0.4627,-56 -1.3807,-5.1893 -1.3806,-5.1893 -6.9957,-6.9958 -6.9958,-6.9957 -7.2958,-1.6327 -7.2959,-1.6328 -7.2727,1.5334 -7.2727,1.5335 -6.1596,4.5046 -6.1597,4.5046 -3.1737,6.4464 -3.1737,6.4465 -0.3885,70.2759 -0.3886,70.2759 -7.6114,6.7845 c -18.3229,16.3322 -57.0769,31.7874 -88.5724,35.3229 l -7.6276,0.8562 -0.058,-82.7582 -0.058,-82.7583 -2.7315,-7.3006 -2.7316,-7.3006 -5.2919,-4.5296 -5.2919,-4.5297 -7.5529,-2.3757 -7.553,-2.3757 -6.0714,1.5934 c -3.3392,0.8763 -8.7639,3.2402 -12.0547,5.2532 l -5.9833,3.6598 -4.35,8.4031 -4.35,8.4031 V 1756.7832 1840 l -5,-0.1306 c -2.75,-0.072 -8.6,-0.8698 -13,-1.7732 z m 14.4056,-340.7335 c 3.4436,-2.1839 6.2706,-4.4339 6.2823,-5 0.012,-0.5662 1.6618,-2.9268 3.6667,-5.2459 2.005,-2.3191 6.6454,-8.1337 10.312,-12.9213 l 6.6667,-8.7048 4.0523,-2.2305 4.0524,-2.2306 2.5581,0.4926 2.5582,0.4927 14.0562,17.2359 14.0561,17.2359 5.3334,2.3884 5.3333,2.3883 6.3865,0.035 6.3864,0.035 5.203,-2.6543 5.203,-2.6544 3.2772,-4.3456 c 5.3402,-7.0812 8.3423,-13.2266 10.2647,-21.0123 l 1.8108,-7.3334 -0.045,-10 -0.045,-10 -3.0759,-8.6666 c -2.6407,-7.4406 -12.0029,-26.6817 -18.7141,-38.4615 -1.1088,-1.9462 -4.4088,-7.7385 -7.3334,-12.8719 -2.9245,-5.1333 -5.7912,-10.2333 -6.3704,-11.3333 -2.0361,-3.8672 -4.3623,-7.5061 -13.3122,-20.8252 l -9.0319,-13.4412 -10.4816,-10.2001 -10.4816,-10.2002 h -2.9332 -2.9332 l -9.6502,9.6667 c -13.692,13.7154 -29.2165,35.6141 -41.3658,58.3504 -2.1503,4.024 -5.6141,10.3163 -7.6976,13.9829 -7.8962,13.8969 -14.1239,26.9889 -17.1245,36 l -3.108,9.3334 0.1567,12.0928 0.1567,12.0928 3.0964,7.602 c 1.703,4.181 5.1964,10.2706 7.7631,13.5322 l 4.6667,5.9303 5.3333,2.7072 5.3333,2.7072 h 6.739 l 6.739,10e-4 z M 1686,1306.5661 c 5.1334,-0.7406 11.8834,-1.699 15,-2.1297 3.1167,-0.4308 5.6667,-1.2052 5.6667,-1.7209 0,-0.5158 0.75,-0.9553 1.6667,-0.9768 5.6116,-0.1318 27.0929,-7.7307 30.0485,-10.6296 0.9433,-0.9253 3.4933,-2.7327 5.6667,-4.0165 2.1733,-1.2838 3.9514,-2.762 3.9514,-3.2848 0,-0.5229 0.7707,-1.7435 1.7126,-2.7126 5.7314,-5.8963 11.2182,-28.3643 12.4777,-51.0952 l 0.7388,-13.3333 -2.1597,-23.4365 -2.1597,-23.4364 -3.3543,-13.8527 c -9.3274,-38.5213 -23.7482,-68.6542 -49.1052,-102.6078 l -9.4597,-12.6666 -17.3452,-17.4135 c -45.9963,-46.17719 -95.9083,-72.79998 -149.9825,-79.99983 l -14.0294,-1.86798 -19.3334,3.8e-4 c -31.9716,6.4e-4 -62.6394,5.91517 -75.0366,14.47141 l -5.0366,3.47615 -4.5092,7.33334 -4.5092,7.33333 -3.412,12.66667 c -1.8766,6.96666 -4.0936,18.36663 -4.9267,25.33333 l -1.5147,12.6667 0.7615,16 c 1.8101,38.0301 11.1589,68.8824 31.5137,104 3.3801,5.8315 18.7168,28.9278 19.9211,30 0.4118,0.3666 4.3487,5.4416 8.7487,11.2777 14.8298,19.6699 44.5118,50.1251 58.5309,60.0556 2.0705,1.4667 4.4481,3.2667 5.2835,4 6.5413,5.742 29.1037,20.8716 44.1856,29.6294 21.1181,12.2629 51.2776,22.8968 72.6667,25.6215 6.2333,0.794 12.8333,1.6557 14.6667,1.9148 7.0453,0.9958 23.7321,0.6895 32.6666,-0.5996 z m 420.8275,0.056 c 30.8587,-3.6381 59.8176,-13.5681 86.196,-29.5568 4.5963,-2.7859 8.7099,-5.0653 9.1415,-5.0653 0.4315,0 2.971,-1.7178 5.6432,-3.8173 2.6722,-2.0995 6.6585,-4.759 8.8585,-5.9099 2.2,-1.1509 8.2,-5.4301 13.3333,-9.5093 29.4234,-23.3812 56.1867,-50.8942 74.6719,-76.7635 2.8821,-4.0333 5.5799,-7.6333 5.995,-8 11.044,-9.7535 34.5079,-59.5744 42.1164,-89.4254 l 3.5448,-13.9079 0.986,-18 0.9861,-18 -1.0559,-13.444 c -1.5195,-19.34779 -6.6972,-38.36707 -13.6961,-50.30974 l -3.3795,-5.76678 -5.0843,-3.4997 -5.0843,-3.49971 -12,-3.4915 -12.0001,-3.4915 -15.3333,-2.05696 -15.3333,-2.05696 -23.3334,0.74695 -23.3333,0.74695 -13.3333,2.58728 c -7.3334,1.42299 -20.2334,4.8137 -28.6667,7.5349 l -15.3333,4.94762 -14.7266,7.1493 c -19.8222,9.62307 -34.8261,19.22601 -53.5948,34.30231 l -15.6786,12.59414 -14.6744,15.1704 c -34.3761,35.5378 -62.9847,84.4153 -71.3126,121.837 -10.1505,45.6113 -11.4459,82.1144 -4.0022,112.7792 l 2.4548,10.1125 3.5662,5.8875 3.5663,5.8874 5.6952,4.3567 c 18.8927,14.4526 60.7841,22.8717 94.2008,18.9321 z m -380.3858,-519.81154 -6.0805,-3.8561 -1.5139,-4.34286 c -0.8327,-2.38857 -1.5139,-6.83676 -1.5139,-9.88486 v -5.54199 l 3.2737,-4.43734 c 3.8001,-5.15076 9.0751,-8.6485 14.7338,-9.76972 l 3.9925,-0.79106 5.5236,1.36229 5.5236,1.36228 4.2868,4.42289 4.2869,4.42289 0.6077,8.45484 0.6076,8.45485 -2.6211,4.15132 -2.6212,4.15132 -5.8846,2.84868 -5.8846,2.84868 h -5.318 -5.318 z M 2006,788.18592 c -5.4669,-3.37691 -8.0413,-6.62169 -9.9363,-12.52387 l -1.6068,-5.00462 1.0296,-4.32871 c 0.5663,-2.3808 1.085,-4.62872 1.1526,-4.99539 0.068,-0.36666 1.0015,-2.06775 2.0753,-3.7802 l 1.9523,-3.11353 6.4736,-3.31331 6.4735,-3.31331 5.5265,0.90315 5.5264,0.90314 4.3347,3.25929 c 2.3842,1.79261 5.2342,4.99848 6.3334,7.12415 l 1.9986,3.86486 v 6.24217 6.24217 l -2.8011,4.53216 -2.801,4.53216 -5.1458,2.62522 -5.1459,2.62522 -5.7198,-0.005 -5.7198,-0.005 z M 1870.8262,631.76431 c -6.3137,-1.77059 -10.6377,-4.86563 -12.8943,-9.22943 L 1856,618.79909 v -6.65666 -6.65667 l 2.773,-4.69983 2.773,-4.69984 4.7221,-2.91844 4.7222,-2.91845 5.9259,0.0896 5.9259,0.0896 5.2133,3.44997 c 2.8672,1.89748 6.2082,4.96858 7.4244,6.82465 l 2.2112,3.37468 0.3296,5.62783 0.3297,5.62783 -1.9423,4.88932 -1.9423,4.88932 -5.0316,3.3298 -5.0317,3.3298 -4.5345,0.62836 -4.5345,0.62836 z m 256.5072,-23.51468 c -1.4667,-0.28672 -4.6804,-2.03927 -7.1415,-3.89456 l -4.4748,-3.37326 -1.9994,-4.78527 -1.9994,-4.78526 0.8111,-5.9178 0.8111,-5.91781 3.5055,-4.59597 3.5056,-4.59598 4.4481,-1.85853 c 2.4464,-1.02219 6.8757,-1.85852 9.8429,-1.85852 h 5.3948 l 4.5861,3 4.586,3 2.7286,4.8482 2.7286,4.84821 V 588 v 5.63692 l -2.7923,4.9683 -2.7924,4.9683 -3.5476,2.09564 -3.5476,2.09564 -5.9934,0.50306 c -3.2963,0.27669 -7.1934,0.26848 -8.66,-0.0182 z M 1590,575.34432 c -0.7333,-0.24442 -2.9075,-0.78929 -4.8315,-1.21082 l -3.4982,-0.76641 -4.7818,-4.9231 -4.7818,-4.9231 -0.8323,-3.78941 c -0.4578,-2.08418 -0.4255,-6.1972 0.072,-9.14005 l 0.904,-5.35064 3.2709,-3.88733 c 1.7991,-2.13803 5.135,-4.81721 7.4132,-5.95373 l 4.1422,-2.0664 h 4.9236 4.9237 l 3.9401,1.96558 c 14.8515,7.40893 16.6462,23.91231 3.8246,35.16983 l -4.7812,4.19793 h -2.5112 c -1.3811,0 -3.3103,0.25246 -4.2869,0.56103 -0.9767,0.30856 -2.3757,0.36104 -3.1091,0.11662 z"
       id="path1" />
  </g>
</svg>
